M48
;Layer_Color=9474304
;FILE_FORMAT=4:4
METRIC,LZ
;TYPE=PLATED
T1F00S00C0.3000
T2F00S00C0.5000
T4F00S00C1.0000
T5F00S00C1.1000
T6F00S00C3.2000
;TYPE=NON_PLATED
T7F00S00C3.2000
%
T01
X00323Y0005785
X00323182Y00075621
X00338204Y000545
X003905Y00057
X004095
X00437Y00059
X00443Y00039
X00464Y00055
X0048075
X00496Y000585
Y000775
X0050452Y0008823
X004575Y00112
X004435Y00142
X0040925Y0012
X00403Y00112
X00392Y000795
X0036625Y00018
X003875Y00239
X00378Y00255
X00355
X003265Y00248
X00496Y002475
X0049125Y00238
X0051405
X0054225
X005525Y00233
X005675Y002275
X00582261Y00231272
X0058275Y00242
X0062375Y002245
X00617Y002115
X0059375Y0017
X005325Y00181
X00504Y00159
X0048725Y00259
X005235Y00264
X00543
X0051025Y00279066
X006745Y0023
X00672Y00147
X00673Y00132
X0029475Y00155
X0028775Y00176
X0030225Y00181
X00254Y00185917
X002485Y00197
X0025175Y002085
Y00224
X00264Y00245
X0025525Y00256
X0023475Y00266
X0023025Y00281
X00217Y002825
Y002635
X002155Y00249
X001855Y00239
X00174Y00233
X00157Y0024
X001345Y00237
X0013825Y00219
X001525Y00217
X0012425Y00214
X001095Y00229
X00112Y00251
X000715Y002495
X00069Y002095
Y002025
X0005775Y0017
X00039Y00169
X0005675Y00143
X00118Y001155
X001406Y00115
X001533
X00166
X001635Y00157
X00128Y00161
X00218907Y00159
X0022075Y00175
X00233Y00195
X00257571Y00165071
X002655Y00151
X0024125Y00138
X002215Y00109
X002475Y00095
X00268Y0009
X00269Y0010416
X00288865Y00100365
X0028975Y00091
X0029575Y00081
X0029225Y00062
X00310841Y00055972
X0029525Y00038
X002595Y00042
X00236Y00048
X0023625Y00063
X00072Y000575
X00021Y00089
X000315Y00291
X00059Y00294
X0007725Y0029
X000945Y00289
X0008975Y00298
X00071Y00307
X000785Y00318
X001285Y00311
X00135Y00304
X0012675Y00296
X0013925Y00317
X0015575Y00309
X001705Y00299
X0018225Y0031825
X00217Y003015
X00244Y00292
X002595Y00298
X002835Y00272
X00298Y0025
X00292878Y00243854
X0027225Y00211
X00165Y00273
X0015175Y00278
X00142Y00274
X001535Y00324
X0017475Y00325
X00195Y00343
X00193Y003615
X0020913Y00365
X00171Y00364
X00161125Y00363687
X0017875Y00397
X0018225Y00441
X0019775Y00439
X00214Y0043
X00226Y00417
Y00391
X00262Y003725
X00234Y00339
X003125Y00345
X00307Y00355
X00297Y00425
X0027775Y00453
X0025225Y0046
X002625Y00474
X002515Y00493
X00276
X003025Y00492
X00170653Y00446996
X0016675Y00433
X0012375Y00432
X00098Y00419
X00103Y00411
X001025Y00403
X0010275Y0039
X00092Y00374
X0008925Y00362
X00080717Y00358732
X0008575Y00343
X000995Y00344
X0010275Y003555
X00110529Y00357367
X00089Y00329
X0009725Y0046594
X0008925Y00507
X00075201Y00513049
X000565Y00528
X000455Y00521
X00051Y00451
X000445Y00437
X00331Y00483
X0032125Y00337
X005765Y00423
X00621Y00432
T02
X00021Y00021
X00019Y00125
T04
X006085Y002605
Y003055
X006735
Y002605
X002375Y000805
X001925
Y000155
X002375
T05
X003302Y000254
X003556
X00381
X004064
X004318
X004572
X00508
X005334
X005588
X005842
X006096
X00635
X0062065Y0012573
X0059525
X0056985
X0054445
X0051905
X0049365
X0046825
X0044285
X0041745
X0039205
X0036665
X0034125
Y0020193
X0036665
X0039205
X0041745
X0044285
X0046825
X0049365
X0051905
X0054445
X0056985
X0059525
X0062065
X0031585
X0029045
Y0012573
X0031585
X003048Y000254
X002794
X00169Y00088
X001436
X001182
X000508Y003166
X000254
Y00342
X000508
Y0038608
X000762
Y0041148
X000508
X000254
Y0038608
Y0047244
X000508
X000762
Y0049784
X000508
X000254
X00146Y00446
Y004206
Y003952
Y003698
X0018796Y00508
X0021336
X0023876
X0026416
X0028956
X0031496
X0034036
X0036576
X0039116
X0041656
X004572
X004826
X00508
X005334
X005588
X005842
X006096
X00635
X00662Y00469
Y004436
Y004182
T06
X006604Y000822
X001397Y000254
X006604Y003556
T07
X001524Y00508
M30
